<?xml version="1.0" encoding="UTF-8"?>
<svg width="110px" height="66px" viewBox="0 0 110 66" version="1.1" xmlns="http://www.w3.org/2000/svg" xmlns:xlink="http://www.w3.org/1999/xlink">
    <!-- Generator: Sketch 48.2 (47327) - http://www.bohemiancoding.com/sketch -->
    <title>Icon</title>
    <desc>Created with Sketch.</desc>
    <defs>
        <polygon id="path-1" points="0 0.129313107 36.8630424 0.129313107 36.8630424 58.8567818 0 58.8567818"></polygon>
    </defs>
    <g id="07.Batch-certification-requests" stroke="none" stroke-width="1" fill="none" fill-rule="evenodd" transform="translate(-441.000000, -371.000000)">
        <g id="Group-18" transform="translate(161.000000, 70.000000)">
            <g id="Group-31" transform="translate(0.000000, 261.000000)">
                <g id="Group-32">
                    <g id="Icon" transform="translate(280.000000, 40.000000)">
                        <g id="Group-30" transform="translate(73.000000, 2.000000)">
                            <g id="Page-1">
                                <g id="Group-3" transform="translate(0.000000, 0.013891)">
                                    <mask id="mask-2" fill="white">
                                        <use xlink:href="#path-1"></use>
                                    </mask>
                                    <g id="Clip-2"></g>
                                    <path d="M35.9161591,58.8567818 L35.8970113,58.8567818 C35.3739724,58.8567818 34.950128,58.4351896 34.950128,57.9149299 L34.950128,2.03204879 L0.946840078,2.03204879 C0.423945136,2.03204879 -4.31906615e-05,1.61045655 -4.31906615e-05,1.09019684 L-4.31906615e-05,1.07115073 C-4.31906615e-05,0.551034223 0.423945136,0.129298786 0.946840078,0.129298786 L36.8630424,0.129298786 L36.8630424,57.9149299 C36.8630424,58.4351896 36.4391981,58.8567818 35.9161591,58.8567818" id="Fill-1" fill="#BDC5C7" mask="url(#mask-2)"></path>
                                </g>
                                <path d="M26.6644747,13.6228566 L11.3565525,13.6228566 C10.8336576,13.6228566 10.4096693,13.2011211 10.4096693,12.6810046 L10.4096693,12.6619585 C10.4096693,12.1416988 10.8336576,11.7201066 11.3565525,11.7201066 L26.6644747,11.7201066 C27.1875136,11.7201066 27.611358,12.1416988 27.611358,12.6619585 L27.611358,12.6810046 C27.611358,13.2011211 27.1875136,13.6228566 26.6644747,13.6228566" id="Fill-4" fill="#BDC5C7"></path>
                                <path d="M28.3573759,21.0888913 L9.66359377,21.0888913 C9.14069883,21.0888913 8.71671051,20.6671558 8.71671051,20.1470393 L8.71671051,20.1279932 C8.71671051,19.6077335 9.14069883,19.1861413 9.66359377,19.1861413 L28.3573759,19.1861413 C28.8804148,19.1861413 29.3042591,19.6077335 29.3042591,20.1279932 L29.3042591,20.1470393 C29.3042591,20.6671558 28.8804148,21.0888913 28.3573759,21.0888913" id="Fill-6" fill="#BDC5C7"></path>
                                <path d="M26.6644747,28.5548687 L11.3565525,28.5548687 C10.8336576,28.5548687 10.4096693,28.1332765 10.4096693,27.6130167 L10.4096693,27.5939706 C10.4096693,27.0738541 10.8336576,26.6521187 11.3565525,26.6521187 L26.6644747,26.6521187 C27.1875136,26.6521187 27.611358,27.0738541 27.611358,27.5939706 L27.611358,27.6130167 C27.611358,28.1332765 27.1875136,28.5548687 26.6644747,28.5548687" id="Fill-8" fill="#BDC5C7"></path>
                                <path d="M26.6644747,44.0992636 L19.9573969,44.0992636 C19.4345019,44.0992636 19.0105136,43.6776714 19.0105136,43.1574117 L19.0105136,43.1383655 C19.0105136,42.6181058 19.4345019,42.1965136 19.9573969,42.1965136 L26.6644747,42.1965136 C27.1875136,42.1965136 27.611358,42.6181058 27.611358,43.1383655 L27.611358,43.1574117 C27.611358,43.6776714 27.1875136,44.0992636 26.6644747,44.0992636" id="Fill-10" fill="#BDC5C7"></path>
                            </g>
                        </g>
                        <g id="Group-28">
                            <g id="Page-1">
                                <path d="M24.5,52.3124694 L12.3428553,62.54206 C9.22191207,65.1682821 4.69941413,64.9886606 2.24191047,62.1409205 C-0.215593183,59.2931804 0.322255747,54.8556603 3.44319899,52.2294383 L15.6003437,42" id="Fill-1" fill="#D3DADB"></path>
                                <path d="M7.45041063,65.8 C7.34062032,65.8 7.23098507,65.7977091 7.12088461,65.7934328 C4.98493574,65.7088234 3.07244428,64.811566 1.73588675,63.2669088 C0.399329227,61.7222516 -0.196608883,59.720184 0.0572424537,57.6298416 C0.308612653,55.561797 1.36464662,53.6528915 3.03057509,52.2546972 L15.2493998,42 L16.2551907,43.1623874 L4.03636603,53.4170846 C2.668174,54.5652686 1.80179195,56.1259619 1.59709815,57.8111258 C1.39504055,59.4739919 1.86351024,61.059732 2.91628771,62.2763367 C3.96891011,63.493094 5.48426458,64.2000565 7.18322318,64.2675608 C8.90404681,64.3329269 10.6070373,63.7408134 11.9753844,62.5924767 L24.1942091,52.3379322 L25.2,53.5003196 L12.9811753,63.7548641 C11.4017765,65.0803614 9.44943175,65.8 7.45041063,65.8" id="Fill-5" fill="#BDC5C7"></path>
                                <g id="Group-29" transform="translate(11.000000, 0.000000)" fill="#BDC5C7">
                                    <path d="M29.9529669,1.53980313 C29.8864785,1.53980313 29.8210552,1.54011109 29.7542625,1.54057303 C22.4014401,1.59338827 15.5088633,4.5410334 10.3466577,9.84026585 C5.18414785,15.1396523 2.36987932,22.1565351 2.42221799,29.5980957 C2.47440451,37.0395022 5.3869602,44.0151184 10.6231094,49.2395164 C15.8114843,54.4163345 22.6664807,57.2601969 29.9444466,57.2601969 C30.0116957,57.2601969 30.0781841,57.2598889 30.1455853,57.259427 C45.3244082,57.150101 57.5856544,44.5635962 57.477782,29.2019043 C57.370366,13.9078098 45.0409578,1.53980313 29.9529669,1.53980313 M29.9441423,58.8 C22.2634425,58.800154 15.0303601,55.7993856 9.55503537,50.3360102 C4.02934988,44.8228991 0.955822354,37.4617163 0.900745032,29.6088743 C0.786938855,13.398135 13.7258492,0.115947175 29.7436122,0.000769901563 C29.8129914,0.000307960625 29.883892,0 29.9532712,0 C45.8762464,0 58.8857531,13.0506014 58.999255,29.1911257 C59.1130611,45.4017111 46.1741508,58.6838988 30.1562357,58.7992301 C30.0856393,58.799692 30.0145865,58.8 29.9441423,58.8" id="Fill-3"></path>
                                    <path d="M47.0316946,17.5 C46.8121517,17.5 46.5941463,17.4044265 46.4422497,17.2190957 C41.6196864,11.3388118 35.6388346,8.83550985 27.6156807,9.33538428 C27.1916617,9.36603696 26.8274481,9.03215857 26.8014658,8.59893406 C26.7754835,8.16555236 27.0980331,7.79284724 27.5217447,7.76643878 C36.0734618,7.23166745 42.457885,9.9143269 47.6202171,16.2089721 C47.8931082,16.541593 47.8505218,17.0373804 47.5252048,17.3162411 C47.381149,17.4396378 47.2058837,17.5 47.0316946,17.5" id="Fill-8"></path>
                                </g>
                            </g>
                        </g>
                    </g>
                </g>
            </g>
        </g>
    </g>
</svg>